<?xml version="1.0" standalone="no"?>
<!DOCTYPE svg PUBLIC "-//W3C//DTD SVG 20010904//EN"
 "http://www.w3.org/TR/2001/REC-SVG-20010904/DTD/svg10.dtd">
<svg version="1.0" xmlns="http://www.w3.org/2000/svg"
 width="500.000000pt" height="500.000000pt" viewBox="0 0 500.000000 500.000000"
 preserveAspectRatio="xMidYMid meet">
<metadata>
Created by potrace 1.14, written by Peter Selinger 2001-2017
</metadata>
<g transform="translate(0.000000,500.000000) scale(0.100000,-0.100000)"
fill="#000000" stroke="none">
<path d="M0 2500 l0 -2500 2500 0 2500 0 0 2500 0 2500 -2500 0 -2500 0 0
-2500z m2648 734 c47 -9 118 -35 182 -66 92 -44 115 -61 195 -142 102 -102
141 -165 187 -299 29 -85 32 -103 32 -222 0 -136 -7 -177 -51 -285 -86 -211
-264 -371 -493 -441 -63 -20 -96 -23 -205 -23 -112 1 -141 5 -210 27 -296 98
-489 328 -528 629 -25 198 36 409 161 557 70 82 90 100 172 154 167 111 364
151 558 111z"/>
<path d="M2315 3042 c-176 -60 -294 -178 -357 -357 -24 -68 -28 -96 -28 -185
0 -90 4 -117 29 -187 62 -180 212 -322 386 -367 77 -21 233 -21 310 0 174 45
324 187 386 367 54 154 35 343 -49 486 -37 63 -136 161 -202 198 -140 79 -324
97 -475 45z"/>
</g>
</svg>
